<?xml version="1.0" encoding="UTF-8"?>
<!-- Created with Inkscape (http://www.inkscape.org/) -->
<svg width="258.78mm" height="43.561mm" version="1.1" viewBox="0 0 258.78 43.561" xmlns="http://www.w3.org/2000/svg">
 <defs>
  <rect x="394.92" y="579.88" width="334.93" height="202.46"/>
 </defs>
 <g transform="translate(12.983 -127.06)">
  <g transform="matrix(1.3928 0 0 1.3928 -504.92 -689.47)" style="shape-inside:url(#rect2101);white-space:pre" aria-label="Filerica">
   <path d="m413.36 590.32q-8.56 0-10.04 7.56l-0.92 4.56h13.84l-0.4 1.84h-13.8l-2.48 12.36h-2.08l3.76-18.8q1.84-9.4 12.2-9.4 2.36 0 4.4 0.6 2.08 0.6 3.48 1.76l-1.04 1.6q-2.48-2.08-6.92-2.08z"/>
   <path d="m424.4 595.76h2l-4.16 20.88h-2zm2.24-5.08q-0.64 0-1.08-0.44t-0.44-1.04q0-0.72 0.48-1.24 0.52-0.52 1.28-0.52 0.64 0 1.08 0.44 0.48 0.44 0.48 1.04 0 0.76-0.52 1.28-0.52 0.48-1.28 0.48z"/>
   <path d="m436.11 616.8q-2.12 0-3.28-1.12-1.16-1.16-1.16-3.12 0-0.76 0.16-1.52l4.8-24.08h2l-4.76 23.92q-0.16 0.64-0.16 1.36 0 1.4 0.72 2.12 0.76 0.72 2.2 0.72 1.2 0 2.08-0.4l-0.16 1.68q-1.08 0.44-2.44 0.44z"/>
   <path d="m453.35 595.6q4.12 0 6.48 2.36 2.4 2.32 2.4 6.52l-0.04 0.84-18.24 3.44q0.2 3 2.16 4.64 1.96 1.6 5.52 1.6 2.2 0 4.04-0.72 1.88-0.76 3.12-2.08l0.92 1.4q-1.4 1.52-3.56 2.36t-4.68 0.84q-4.44 0-7-2.32-2.52-2.32-2.52-6.44 0-3.52 1.48-6.36t4.08-4.44q2.6-1.64 5.84-1.64zm-0.04 1.72q-2.6 0-4.68 1.28-2.08 1.24-3.32 3.48t-1.4 5.12l16.44-3.12q0.04-3.16-1.88-4.96-1.88-1.8-5.16-1.8z"/>
   <path d="m471.26 600.16q1.4-2.28 3.56-3.4 2.2-1.16 5.32-1.16l-0.36 1.96-0.64-0.04q-3.56 0-5.84 2.12t-3.12 6.28l-2.16 10.72h-2l4.16-20.88h1.96z"/>
   <path d="m485.57 595.76h2l-4.16 20.88h-2zm2.24-5.08q-0.64 0-1.08-0.44t-0.44-1.04q0-0.72 0.48-1.24 0.52-0.52 1.28-0.52 0.64 0 1.08 0.44 0.48 0.44 0.48 1.04 0 0.76-0.52 1.28-0.52 0.48-1.28 0.48z"/>
   <path d="m500.96 616.8q-4.32 0-6.88-2.36-2.52-2.36-2.52-6.32 0-3.56 1.52-6.4 1.56-2.88 4.28-4.48 2.76-1.64 6.2-1.64 2.8 0 4.8 1 2 0.96 3.12 2.92l-1.64 1q-1.88-3.12-6.4-3.12-2.84 0-5.08 1.4-2.24 1.36-3.52 3.76t-1.28 5.44q0 3.32 1.96 5.16t5.6 1.84q2.08 0 3.88-0.8 1.84-0.8 3.04-2.24l1.4 1.12q-1.36 1.76-3.64 2.76-2.24 0.96-4.84 0.96z"/>
   <path d="m536.2 615.08q1.2 0 2.08-0.4l-0.16 1.68q-1.08 0.44-2.44 0.44-2.16 0-3.32-1.16-1.16-1.2-1.08-3.24-1.52 2.12-3.8 3.28-2.28 1.12-5.12 1.12-4.08 0-6.56-2.32-2.44-2.36-2.44-6.36 0-3.56 1.52-6.4 1.52-2.88 4.2-4.48 2.72-1.64 6.08-1.64 3.24 0 5.36 1.4t2.88 3.96l1.04-5.2h2l-3.04 15.12q-0.12 0.72-0.12 1.32 0 1.4 0.72 2.16 0.76 0.72 2.2 0.72zm-13.44-0.08q2.8 0 5-1.36 2.24-1.36 3.52-3.76 1.28-2.44 1.28-5.48 0-3.32-1.96-5.16-1.92-1.84-5.44-1.84-2.8 0-5.04 1.4-2.2 1.36-3.48 3.8-1.28 2.4-1.28 5.4 0 3.32 1.92 5.16 1.96 1.84 5.48 1.84z"/>
  </g>
  <g transform="matrix(.11805 0 0 .11805 -11.983 118.62)">
   <path class="st0" d="m504.23 206.56v-0.018l-0.212-0.431-0.282-0.397c-8.614-12.701-22.972-20.505-38.474-20.505h-80.454l-12.719-36.36-0.388 0.097c-8.896-19.334-28.027-32.396-49.854-32.396h-175.88c-2.009-0.026-4.07-1.136-5.268-3.691l0.018 0.035c-8.65-19.017-27.5-31.542-48.551-31.542h-45.38c-0.035 0-0.035-9e-3 -0.053-9e-3 -15.22 9e-3 -29.33 7.539-37.998 19.836l-0.599 0.872-0.122 0.379c-5.25 7.945-8.016 17.141-8.016 26.46 0 4.8 0.74 9.636 2.202 14.339h-0.018l0.017 0.035 0.018 0.062 0.017 0.062v0.017l76.631 249.32v0.035l0.334 1.04c6.959 21.949 27.306 36.835 50.313 36.835l274.57 9e-3c19.853-9e-3 37.734-11.177 46.719-28.459l0.44 0.142 57.905-153.21 0.07-0.202 0.018-0.062 0.017-0.035c1.85-5.231 2.748-10.693 2.748-16.101 1e-3 -9.161-2.642-18.26-7.767-26.161zm-28.398 30.458-55.403 146.57-0.035 0.106c-2.449 6.905-9.002 11.52-16.313 11.52l-274.57-0.016c-7.557 0.017-14.252-4.88-16.524-12.085l-76.966-250.42 0.018 0.043c-0.405-1.259-0.599-2.554-0.599-3.84 0-2.626 0.81-5.197 2.272-7.293l-0.017 0.017c2.237-3.135 5.584-4.818 9.054-4.818h45.415c6.8 0 13.194 4.034 16.295 10.808 6.694 14.701 21.263 24.38 37.505 24.38h175.88c8.35 0 16.013 5.523 18.779 14.252l0.07 0.211 9.054 25.852h-140.61c-20.418 0-38.438 13.107-45.256 32.352l-35.849 103.6 26.777 9.266 35.814-103.48-0.036 0.123c2.995-8.332 10.447-13.511 18.55-13.511h256.12c3.505 0 6.958 1.752 9.16 5.003 1.374 2.043 2.149 4.527 2.131 7.064 0 1.454-0.246 2.907-0.722 4.298z"/>
  </g>
 </g>
 <style type="text/css">.st0{fill:#000000;}</style>
 <style type="text/css">.st0{fill:#000000;}</style>
</svg>
