<?xml version="1.0" encoding="UTF-8" standalone="no"?>
<!-- Created with Inkscape (http://www.inkscape.org/) -->

<svg
   width="258.77551mm"
   height="43.561443mm"
   viewBox="0 0 258.77552 43.561443"
   version="1.1"
   id="svg5"
   inkscape:version="1.1.1 (c3084ef, 2021-09-22)"
   sodipodi:docname="inkscp.svg"
   xmlns:inkscape="http://www.inkscape.org/namespaces/inkscape"
   xmlns:sodipodi="http://sodipodi.sourceforge.net/DTD/sodipodi-0.dtd"
   xmlns="http://www.w3.org/2000/svg"
   xmlns:svg="http://www.w3.org/2000/svg">
  <sodipodi:namedview
     id="namedview7"
     pagecolor="#505050"
     bordercolor="#eeeeee"
     borderopacity="1"
     inkscape:pageshadow="0"
     inkscape:pageopacity="0"
     inkscape:pagecheckerboard="0"
     inkscape:document-units="mm"
     showgrid="false"
     fit-margin-top="1"
     fit-margin-left="1"
     fit-margin-right="1"
     fit-margin-bottom="1"
     inkscape:zoom="0.58927702"
     inkscape:cx="464.12806"
     inkscape:cy="201.09388"
     inkscape:window-width="1440"
     inkscape:window-height="847"
     inkscape:window-x="0"
     inkscape:window-y="25"
     inkscape:window-maximized="0"
     inkscape:current-layer="layer1" />
  <defs
     id="defs2">
    <rect
       x="394.91687"
       y="579.87793"
       width="334.9295"
       height="202.45738"
       id="rect2101" />
  </defs>
  <g
     inkscape:label="Layer 1"
     inkscape:groupmode="layer"
     id="layer1"
     transform="translate(12.983392,-127.05771)">
    <g
       aria-label="Filerica"
       transform="matrix(1.3928097,0,0,1.3928097,-504.92482,-689.46956)"
       id="text2099"
       style="font-size:40px;line-height:1.25;white-space:pre;shape-inside:url(#rect2101)">
      <path
         d="m 413.35602,590.32265 q -8.56,0 -10.04,7.56 l -0.92,4.56 h 13.84 l -0.4,1.84 h -13.8 l -2.48,12.36 h -2.08 l 3.76,-18.8 q 1.84,-9.4 12.2,-9.4 2.36,0 4.4,0.6 2.08,0.6 3.48,1.76 l -1.04,1.6 q -2.48,-2.08 -6.92,-2.08 z"
         style="font-style:italic;font-weight:300;font-family:'Montserrat Alternates';-inkscape-font-specification:'Montserrat Alternates, Light Italic'"
         id="path6761" />
      <path
         d="m 424.39914,595.76265 h 2 l -4.16,20.88 h -2 z m 2.24,-5.08 q -0.64,0 -1.08,-0.44 -0.44,-0.44 -0.44,-1.04 0,-0.72 0.48,-1.24 0.52,-0.52 1.28,-0.52 0.64,0 1.08,0.44 0.48,0.44 0.48,1.04 0,0.76 -0.52,1.28 -0.52,0.48 -1.28,0.48 z"
         style="font-style:italic;font-weight:300;font-family:'Montserrat Alternates';-inkscape-font-specification:'Montserrat Alternates, Light Italic'"
         id="path6763" />
      <path
         d="m 436.10789,616.80265 q -2.12,0 -3.28,-1.12 -1.16,-1.16 -1.16,-3.12 0,-0.76 0.16,-1.52 l 4.8,-24.08 h 2 l -4.76,23.92 q -0.16,0.64 -0.16,1.36 0,1.4 0.72,2.12 0.76,0.72 2.2,0.72 1.2,0 2.08,-0.4 l -0.16,1.68 q -1.08,0.44 -2.44,0.44 z"
         style="font-style:italic;font-weight:300;font-family:'Montserrat Alternates';-inkscape-font-specification:'Montserrat Alternates, Light Italic'"
         id="path6765" />
      <path
         d="m 453.35039,595.60265 q 4.12,0 6.48,2.36 2.4,2.32 2.4,6.52 l -0.04,0.84 -18.24,3.44 q 0.2,3 2.16,4.64 1.96,1.6 5.52,1.6 2.2,0 4.04,-0.72 1.88,-0.76 3.12,-2.08 l 0.92,1.4 q -1.4,1.52 -3.56,2.36 -2.16,0.84 -4.68,0.84 -4.44,0 -7,-2.32 -2.52,-2.32 -2.52,-6.44 0,-3.52 1.48,-6.36 1.48,-2.84 4.08,-4.44 2.6,-1.64 5.84,-1.64 z m -0.04,1.72 q -2.6,0 -4.68,1.28 -2.08,1.24 -3.32,3.48 -1.24,2.24 -1.4,5.12 l 16.44,-3.12 q 0.04,-3.16 -1.88,-4.96 -1.88,-1.8 -5.16,-1.8 z"
         style="font-style:italic;font-weight:300;font-family:'Montserrat Alternates';-inkscape-font-specification:'Montserrat Alternates, Light Italic'"
         id="path6767" />
      <path
         d="m 471.26039,600.16265 q 1.4,-2.28 3.56,-3.4 2.2,-1.16 5.32,-1.16 l -0.36,1.96 -0.64,-0.04 q -3.56,0 -5.84,2.12 -2.28,2.12 -3.12,6.28 l -2.16,10.72 h -2 l 4.16,-20.88 h 1.96 z"
         style="font-style:italic;font-weight:300;font-family:'Montserrat Alternates';-inkscape-font-specification:'Montserrat Alternates, Light Italic'"
         id="path6769" />
      <path
         d="m 485.57102,595.76265 h 2 l -4.16,20.88 h -2 z m 2.24,-5.08 q -0.64,0 -1.08,-0.44 -0.44,-0.44 -0.44,-1.04 0,-0.72 0.48,-1.24 0.52,-0.52 1.28,-0.52 0.64,0 1.08,0.44 0.48,0.44 0.48,1.04 0,0.76 -0.52,1.28 -0.52,0.48 -1.28,0.48 z"
         style="font-style:italic;font-weight:300;font-family:'Montserrat Alternates';-inkscape-font-specification:'Montserrat Alternates, Light Italic'"
         id="path6771" />
      <path
         d="m 500.95977,616.80265 q -4.32,0 -6.88,-2.36 -2.52,-2.36 -2.52,-6.32 0,-3.56 1.52,-6.4 1.56,-2.88 4.28,-4.48 2.76,-1.64 6.2,-1.64 2.8,0 4.8,1 2,0.96 3.12,2.92 l -1.64,1 q -1.88,-3.12 -6.4,-3.12 -2.84,0 -5.08,1.4 -2.24,1.36 -3.52,3.76 -1.28,2.4 -1.28,5.44 0,3.32 1.96,5.16 1.96,1.84 5.6,1.84 2.08,0 3.88,-0.8 1.84,-0.8 3.04,-2.24 l 1.4,1.12 q -1.36,1.76 -3.64,2.76 -2.24,0.96 -4.84,0.96 z"
         style="font-style:italic;font-weight:300;font-family:'Montserrat Alternates';-inkscape-font-specification:'Montserrat Alternates, Light Italic'"
         id="path6773" />
      <path
         d="m 536.19664,615.08265 q 1.2,0 2.08,-0.4 l -0.16,1.68 q -1.08,0.44 -2.44,0.44 -2.16,0 -3.32,-1.16 -1.16,-1.2 -1.08,-3.24 -1.52,2.12 -3.8,3.28 -2.28,1.12 -5.12,1.12 -4.08,0 -6.56,-2.32 -2.44,-2.36 -2.44,-6.36 0,-3.56 1.52,-6.4 1.52,-2.88 4.2,-4.48 2.72,-1.64 6.08,-1.64 3.24,0 5.36,1.4 2.12,1.4 2.88,3.96 l 1.04,-5.2 h 2 l -3.04,15.12 q -0.12,0.72 -0.12,1.32 0,1.4 0.72,2.16 0.76,0.72 2.2,0.72 z m -13.44,-0.08 q 2.8,0 5,-1.36 2.24,-1.36 3.52,-3.76 1.28,-2.44 1.28,-5.48 0,-3.32 -1.96,-5.16 -1.92,-1.84 -5.44,-1.84 -2.8,0 -5.04,1.4 -2.2,1.36 -3.48,3.8 -1.28,2.4 -1.28,5.4 0,3.32 1.92,5.16 1.96,1.84 5.48,1.84 z"
         style="font-style:italic;font-weight:300;font-family:'Montserrat Alternates';-inkscape-font-specification:'Montserrat Alternates, Light Italic'"
         id="path6775" />
    </g>
    <g
       style="opacity:1"
       id="g8492"
       transform="matrix(0.11804777,0,0,0.11804777,-11.983392,118.61826)">
      <g
         id="g8482">
	<path
   class="st0"
   d="m 504.232,206.564 v -0.018 l -0.212,-0.431 -0.282,-0.397 c -8.614,-12.701 -22.972,-20.505 -38.474,-20.505 H 384.81 l -12.719,-36.36 -0.388,0.097 c -8.896,-19.334 -28.027,-32.396 -49.854,-32.396 h -175.88 c -2.009,-0.026 -4.07,-1.136 -5.268,-3.691 l 0.018,0.035 c -8.65,-19.017 -27.5,-31.542 -48.551,-31.542 h -45.38 c -0.035,0 -0.035,-0.009 -0.053,-0.009 -15.22,0.009 -29.33,7.539 -37.998,19.836 l -0.599,0.872 -0.122,0.379 C 2.766,110.379 0,119.575 0,128.894 c 0,4.8 0.74,9.636 2.202,14.339 H 2.184 l 0.017,0.035 0.018,0.062 0.017,0.062 v 0.017 l 76.631,249.324 v 0.035 l 0.334,1.04 c 6.959,21.949 27.306,36.835 50.313,36.835 l 274.568,0.009 c 19.853,-0.009 37.734,-11.177 46.719,-28.459 l 0.44,0.142 57.905,-153.21 0.07,-0.202 0.018,-0.062 0.017,-0.035 c 1.85,-5.231 2.748,-10.693 2.748,-16.101 10e-4,-9.161 -2.642,-18.26 -7.767,-26.161 z m -28.398,30.458 -55.403,146.568 -0.035,0.106 c -2.449,6.905 -9.002,11.52 -16.313,11.52 L 129.515,395.2 c -7.557,0.017 -14.252,-4.88 -16.524,-12.085 l -76.966,-250.424 0.018,0.043 c -0.405,-1.259 -0.599,-2.554 -0.599,-3.84 0,-2.626 0.81,-5.197 2.272,-7.293 l -0.017,0.017 c 2.237,-3.135 5.584,-4.818 9.054,-4.818 h 45.415 c 6.8,0 13.194,4.034 16.295,10.808 6.694,14.701 21.263,24.38 37.505,24.38 H 321.85 c 8.35,0 16.013,5.523 18.779,14.252 l 0.07,0.211 9.054,25.852 H 209.141 c -20.418,0 -38.438,13.107 -45.256,32.352 l -35.849,103.602 26.777,9.266 35.814,-103.478 -0.036,0.123 c 2.995,-8.332 10.447,-13.511 18.55,-13.511 h 256.124 c 3.505,0 6.958,1.752 9.16,5.003 1.374,2.043 2.149,4.527 2.131,7.064 0,1.454 -0.246,2.907 -0.722,4.298 z"
   style="fill:#000000"
   id="path8480" />

</g>
    </g>
  </g>
  <style
     type="text/css"
     id="style9">
	.st0{fill:#000000;}
</style>
  <style
     type="text/css"
     id="style8478">
	.st0{fill:#000000;}
</style>
</svg>
